<?xml version="1.0" encoding="iso-8859-1"?>
<!-- Generator: Adobe Illustrator 19.0.0, SVG Export Plug-In . SVG Version: 6.00 Build 0)  -->
<svg version="1.1" id="Layer_1" xmlns="http://www.w3.org/2000/svg" xmlns:xlink="http://www.w3.org/1999/xlink" x="0px" y="0px"
	 viewBox="0 0 512 512" style="enable-background:new 0 0 512 512;" xml:space="preserve">
<path style="fill:#E65C7B;" d="M339.352,357.213H172.657c-9.864,0-17.86-7.997-17.86-17.86V172.657c0-9.864,7.997-17.86,17.86-17.86
	h166.695c9.864,0,17.86,7.997,17.86,17.86v166.695C357.212,349.216,349.215,357.213,339.352,357.213z"/>
<g>
	<path style="fill:#0778B8;" d="M0.009,201.953V17.86C0.009,7.997,8.006,0,17.869,0H201.96c15.849,0,23.873,19.245,12.628,30.489
		L30.498,214.582C19.337,225.742,0.009,217.955,0.009,201.953z"/>
	<path style="fill:#0778B8;" d="M201.953,511.992H17.861c-9.864,0-17.86-7.997-17.86-17.86V310.04
		c0-15.91,19.291-23.829,30.489-12.628l184.092,184.091C225.789,492.71,217.856,511.992,201.953,511.992z"/>
</g>
<path style="fill:#834496;" d="M339.352,154.797h-83.351v202.416h83.351c9.864,0,17.86-7.997,17.86-17.86V172.657
	C357.212,162.793,349.215,154.797,339.352,154.797z"/>
<g>
	<path style="fill:#224F9C;" d="M481.511,214.589L297.418,30.497c-11.207-11.207-3.273-30.489,12.628-30.489h184.092
		c9.864,0,17.86,7.997,17.86,17.86V201.96C512.001,217.896,492.687,225.764,481.511,214.589z"/>
	<path style="fill:#224F9C;" d="M494.132,512H310.041c-15.849,0-23.873-19.245-12.628-30.489l184.091-184.092
		c11.208-11.205,30.489-3.273,30.489,12.628V494.14C511.992,504.003,503.996,512,494.132,512z"/>
</g>
<g>
</g>
<g>
</g>
<g>
</g>
<g>
</g>
<g>
</g>
<g>
</g>
<g>
</g>
<g>
</g>
<g>
</g>
<g>
</g>
<g>
</g>
<g>
</g>
<g>
</g>
<g>
</g>
<g>
</g>
</svg>
